<?xml version="1.0" ?>
<!-- Uploaded to: SVG Repo, www.svgrepo.com, Generator: SVG Repo Mixer Tools -->
<svg width="800px" height="800px" viewBox="0 0 120 120" id="Layer_1" version="1.1" xml:space="preserve" xmlns="http://www.w3.org/2000/svg" xmlns:xlink="http://www.w3.org/1999/xlink">
<style type="text/css">
	.st0{fill:#FFD487;}
	.st1{fill:#FF9AA0;}
	.st2{fill:#F4F4F4;}
	.st3{fill:#7A98FF;}
</style>
<g>
<g>
<path class="st0" d="M89.2,87.8c-0.3-1-1.5-1.5-2.4-1.1L80,90c-1,0.5-1.3,1.7-0.7,2.6l6.5,9.8c0.5,0.7,1.4,1,2.2,0.6l3.7-1.7    c0.8-0.4,1.2-1.3,0.9-2.1L89.2,87.8z"/>
<path class="st0" d="M40,90l-6.9-3.2c-1-0.5-2.1,0.1-2.4,1.1l-3.3,11.3c-0.2,0.8,0.2,1.7,0.9,2.1l3.7,1.7c0.8,0.4,1.7,0.1,2.2-0.6    l6.5-9.8C41.3,91.6,41,90.4,40,90z"/>
<path class="st0" d="M40,20.1c-5.6-4.5-13.8-4.2-19.1,0.9h0c-5.3,5.1-5.8,13.3-1.5,19.1c0.6,0.8,1.7,0.8,2.4,0.2l18.3-17.7    C40.8,21.8,40.7,20.7,40,20.1z"/>
<path class="st0" d="M99.1,21L99.1,21c-5.3-5.1-13.5-5.4-19.1-0.9c-0.8,0.6-0.8,1.7-0.1,2.4l18.3,17.7c0.7,0.7,1.8,0.6,2.4-0.2    C104.9,34.3,104.4,26.1,99.1,21z"/>
</g>
<circle class="st1" cx="60" cy="60.6" r="38.9"/>
<circle class="st2" cx="60" cy="60.6" r="31.8"/>
<path class="st3" d="M78.3,57.3h-15V35.6c0-1.8-1.5-3.2-3.2-3.2s-3.2,1.5-3.2,3.2v24.6c0,0.1,0,0.2,0,0.3c0,0.1,0,0.2,0,0.3   c0,1.8,1.5,3.2,3.2,3.2h18.3c1.8,0,3.2-1.5,3.2-3.2C81.5,58.8,80,57.3,78.3,57.3z"/>
<circle class="st0" cx="60" cy="60.6" r="6.2"/>
</g>
</svg>